{
  "accessors": [
    {
      "bufferView": 3,
      "componentType": 5126,
      "count": 2523,
      "max": [
        1.6999658346176147,
        8.100415229797363,
        1.446976900100708
      ],
      "min": [
        -1.6999658346176147,
        -0.0005278201424516737,
        -1.0755504369735718
      ],
      "type": "VEC3"
    },
    {
      "bufferView": 3,
      "byteOffset": 30276,
      "componentType": 5126,
      "count": 2523,
      "max": [
        0.9999740719795227,
        0.9996631145477295,
        1.0
      ],
      "min": [
        -0.9999740719795227,
        -1.0,
        -1.0
      ],
      "type": "VEC3"
    },
    {
      "bufferView": 2,
      "componentType": 5126,
      "count": 2523,
      "max": [
        1.0005195140838623,
        0.9918209314346313
      ],
      "min": [
        0.0003401637077331543,
        0.0003401041030883789
      ],
      "type": "VEC2"
    },
    {
      "bufferView": 1,
      "componentType": 5125,
      "count": 8286,
      "type": "SCALAR"
    },
    {
      "bufferView": 5,
      "componentType": 5126,
      "count": 40,
      "max": [
        1.0,
        0.9128710031509399,
        0.9859927296638489,
        0.0,
        0.9859925508499146,
        1.0000001192092896,
        0.8872517943382263,
        0.0,
        0.9128707051277161,
        0.9745797514915466,
        1.0,
        0.0,
        1.8103337287902832,
        7.359128475189209,
        3.6118927001953125,
        1.0
      ],
      "min": [
        0.06330497562885284,
        -0.9128710031509399,
        -0.9859927296638489,
        0.0,
        -0.9859925508499146,
        -1.0000001192092896,
        -0.6507914662361145,
        0.0,
        -0.9128707051277161,
        -0.3432612717151642,
        -1.0,
        0.0,
        -1.8103337287902832,
        -7.359128475189209,
        -4.897308826446533,
        1.0
      ],
      "type": "MAT4"
    },
    {
      "bufferView": 0,
      "componentType": 5123,
      "count": 2523,
      "type": "VEC4"
    },
    {
      "bufferView": 4,
      "componentType": 5126,
      "count": 2523,
      "max": [
        1.0,
        0.49881091713905334,
        0.18741169571876526,
        0.0
      ],
      "min": [
        0.501189112663269,
        0.0,
        0.0,
        0.0
      ],
      "type": "VEC4"
    }
  ],
  "asset": {
    "extras": {
      "author": "TacticalNerd1963 (https://sketchfab.com/TacticalNerd1963)",
      "license": "CC-BY-4.0 (http://creativecommons.org/licenses/by/4.0/)",
      "source": "https://sketchfab.com/3d-models/grey-matter-ben-10-vilgax-attacks-fan-model-004a9d2c1503413385d327b6f8964a01",
      "title": "Grey Matter (Ben 10: Vilgax Attacks fan model)"
    },
    "generator": "Sketchfab-15.97.0",
    "version": "2.0"
  },
  "bufferViews": [
    {
      "buffer": 0,
      "byteLength": 20184,
      "byteStride": 8,
      "name": "shortBufferViews",
      "target": 34962
    },
    {
      "buffer": 0,
      "byteLength": 33144,
      "byteOffset": 20184,
      "name": "floatBufferViews",
      "target": 34963
    },
    {
      "buffer": 0,
      "byteLength": 20184,
      "byteOffset": 53328,
      "byteStride": 8,
      "name": "floatBufferViews",
      "target": 34962
    },
    {
      "buffer": 0,
      "byteLength": 60552,
      "byteOffset": 73512,
      "byteStride": 12,
      "name": "floatBufferViews",
      "target": 34962
    },
    {
      "buffer": 0,
      "byteLength": 40368,
      "byteOffset": 134064,
      "byteStride": 16,
      "name": "floatBufferViews",
      "target": 34962
    },
    {
      "buffer": 0,
      "byteLength": 2560,
      "byteOffset": 174432,
      "name": "floatBufferViews"
    }
  ],
  "buffers": [
    {
      "byteLength": 176992,
      "uri": "scene.bin"
    }
  ],
  "extensionsUsed": [
    "KHR_materials_specular"
  ],
  "images": [
    {
      "uri": "textures/Material.001_baseColor.png"
    }
  ],
  "materials": [
    {
      "doubleSided": true,
      "extensions": {
        "KHR_materials_specular": {
          "specularColorFactor": [
            1.0,
            1.0,
            1.0
          ],
          "specularFactor": 0.0
        }
      },
      "name": "Material.001",
      "pbrMetallicRoughness": {
        "baseColorTexture": {
          "index": 0
        },
        "metallicFactor": 0.0,
        "roughnessFactor": 0.8211145618000169
      }
    }
  ],
  "meshes": [
    {
      "name": "0",
      "primitives": [
        {
          "attributes": {
            "JOINTS_0": 5,
            "NORMAL": 1,
            "POSITION": 0,
            "TEXCOORD_0": 2,
            "WEIGHTS_0": 6
          },
          "indices": 3,
          "material": 0,
          "mode": 4
        }
      ]
    }
  ],
  "nodes": [
    {
      "children": [
        1
      ],
      "matrix": [
        1.0,
        0.0,
        0.0,
        0.0,
        0.0,
        2.220446049250313e-16,
        -1.0,
        0.0,
        0.0,
        1.0,
        2.220446049250313e-16,
        0.0,
        0.0,
        0.0,
        0.0,
        1.0
      ],
      "name": "Sketchfab_model"
    },
    {
      "children": [
        2
      ],
      "matrix": [
        0.009999999776482582,
        0.0,
        0.0,
        0.0,
        0.0,
        0.0,
        0.009999999776482582,
        0.0,
        0.0,
        -0.009999999776482582,
        0.0,
        0.0,
        0.0,
        0.0,
        0.0,
        1.0
      ],
      "name": "XL_GreyMatter.fbx"
    },
    {
      "children": [
        3
      ],
      "name": "RootNode"
    },
    {
      "children": [
        4
      ],
      "matrix": [
        100.0,
        0.0,
        0.0,
        0.0,
        0.0,
        -1.629206793918314e-05,
        -99.99999999999868,
        0.0,
        0.0,
        99.99999999999868,
        -1.629206793918314e-05,
        0.0,
        0.0,
        0.0,
        0.0,
        1.0
      ],
      "name": "Armature"
    },
    {
      "children": [
        5,
        7,
        6
      ],
      "name": "Object_4"
    },
    {
      "children": [
        8,
        41,
        44
      ],
      "name": "_rootJoint"
    },
    {
      "matrix": [
        100.0,
        0.0,
        0.0,
        0.0,
        0.0,
        6.123233995736766e-15,
        -100.0,
        0.0,
        0.0,
        100.0,
        6.123233995736766e-15,
        0.0,
        0.0,
        -1.71661376953125e-05,
        -1.1324882507324219e-06,
        1.0
      ],
      "name": "Object_6"
    },
    {
      "mesh": 0,
      "name": "Object_7",
      "skin": 0
    },
    {
      "children": [
        9
      ],
      "name": "Hips_01",
      "rotation": [
        0.7071068286895752,
        0.0,
        0.0,
        0.7071067094802856
      ],
      "translation": [
        0.0,
        -0.15000000596046448,
        3.500000238418579
      ]
    },
    {
      "children": [
        10
      ],
      "name": "Spine_02",
      "rotation": [
        -0.04791123420000076,
        -0.0,
        0.0,
        0.9988515973091125
      ],
      "translation": [
        0.0,
        0.4399998188018799,
        0.0
      ]
    },
    {
      "children": [
        11,
        17,
        29
      ],
      "name": "Chest_03",
      "rotation": [
        0.0021860746201127768,
        0.0,
        0.0,
        0.999997615814209
      ],
      "translation": [
        0.0,
        0.5223982930183411,
        -1.4901161193847656e-08
      ]
    },
    {
      "children": [
        12
      ],
      "name": "Neck_04",
      "rotation": [
        0.38947057723999023,
        0.0,
        0.0,
        0.9210389256477356
      ],
      "translation": [
        0.0,
        1.0945773124694824,
        -1.4838844819564656e-08
      ]
    },
    {
      "children": [
        13,
        14,
        15,
        16
      ],
      "name": "Head_05",
      "rotation": [
        -0.3469463288784027,
        -0.0,
        0.0,
        0.9378849864006042
      ],
      "translation": [
        0.0,
        0.46097737550735474,
        -2.682209014892578e-07
      ]
    },
    {
      "name": "LeftLoweEyelid_06",
      "rotation": [
        1.0,
        -3.3001182895339015e-15,
        -7.549790126404332e-08,
        -4.371138828673793e-08
      ],
      "translation": [
        0.8451143503189087,
        1.459127426147461,
        0.6306445002555847
      ]
    },
    {
      "name": "LeftUpperEyelid_07",
      "rotation": [
        4.701977963808536e-38,
        1.1920928955078125e-07,
        -3.944304996302799e-31,
        1.0
      ],
      "scale": [
        0.9999999403953552,
        1.0,
        0.9999999403953552
      ],
      "translation": [
        0.8451143503189087,
        1.459127426147461,
        0.6306445002555847
      ]
    },
    {
      "name": "RightLoweEyelid_08",
      "rotation": [
        1.0,
        -3.3001182895339015e-15,
        -7.549790126404332e-08,
        -4.371138828673793e-08
      ],
      "scale": [
        1.0000001192092896,
        1.0,
        1.0000001192092896
      ],
      "translation": [
        -0.8451143503189087,
        1.459127426147461,
        0.6306445002555847
      ]
    },
    {
      "name": "RightUpperEyelid_09",
      "rotation": [
        0.0,
        -1.1920928244535389e-07,
        0.0,
        1.0
      ],
      "translation": [
        -0.8451143503189087,
        1.459127426147461,
        0.6306445002555847
      ]
    },
    {
      "children": [
        18
      ],
      "name": "LeftShoulder_010",
      "rotation": [
        0.6936904191970825,
        0.4000933766365051,
        0.43847936391830444,
        -0.40798860788345337
      ],
      "scale": [
        1.0000003576278687,
        1.000000238418579,
        1.0000001192092896
      ],
      "translation": [
        0.3100000023841858,
        0.9344241619110107,
        -0.11511293053627014
      ]
    },
    {
      "children": [
        19
      ],
      "name": "LeftUpperArm_011",
      "rotation": [
        -0.2169591337442398,
        -0.26906469464302063,
        0.3289986252784729,
        0.8788019418716431
      ],
      "translation": [
        -8.940696716308594e-08,
        0.5477226376533508,
        1.043081283569336e-07
      ]
    },
    {
      "children": [
        20
      ],
      "name": "LeftLowerArm_012",
      "rotation": [
        -0.20281396806240082,
        -0.10360858589410782,
        0.08105378597974777,
        0.9703412055969238
      ],
      "scale": [
        0.9999998807907104,
        0.9999998807907104,
        0.9999998807907104
      ],
      "translation": [
        2.384185791015625e-07,
        1.3109540939331055,
        -1.1920928955078125e-07
      ]
    },
    {
      "children": [
        21,
        23,
        25,
        27
      ],
      "name": "LeftHand_013",
      "rotation": [
        0.002908771624788642,
        -0.03302496299147606,
        0.03317857161164284,
        0.9988994598388672
      ],
      "scale": [
        1.0,
        0.9999999403953552,
        0.9999999403953552
      ],
      "translation": [
        -2.2351741790771484e-07,
        0.9254727959632874,
        -2.561137080192566e-08
      ]
    },
    {
      "children": [
        22
      ],
      "name": "LeftMiddle1_014",
      "rotation": [
        -0.0004520731745287776,
        -0.021257352083921432,
        0.021257327869534492,
        0.9995480179786682
      ],
      "scale": [
        0.9999998807907104,
        1.0000001192092896,
        0.9999999403953552
      ],
      "translation": [
        0.213018536567688,
        0.8698511123657227,
        0.009064583107829094
      ]
    },
    {
      "name": "LeftMiddle2_015",
      "rotation": [
        -0.052908748388290405,
        -0.2089550793170929,
        0.20895497500896454,
        0.9538743495941162
      ],
      "scale": [
        1.0,
        0.9999998807907104,
        1.0
      ],
      "translation": [
        4.731613501007814e-08,
        0.510000467300415,
        -1.6260873536566578e-08
      ]
    },
    {
      "children": [
        24
      ],
      "name": "LeftPinkie1_016",
      "rotation": [
        0.04826073721051216,
        -0.008619091473519802,
        0.01068051066249609,
        0.9987404942512512
      ],
      "scale": [
        0.9999999403953552,
        1.0000001192092896,
        1.0
      ],
      "translation": [
        0.1611868441104889,
        0.8681507110595703,
        0.2871123254299164
      ]
    },
    {
      "name": "LeftPinkie2_017",
      "rotation": [
        -0.1111644059419632,
        -0.18688294291496277,
        0.2033465951681137,
        0.954655647277832
      ],
      "scale": [
        1.0,
        1.0000001192092896,
        1.0
      ],
      "translation": [
        4.842877388000488e-08,
        0.41206836700439453,
        -8.568167686462402e-08
      ]
    },
    {
      "children": [
        26
      ],
      "name": "LeftIndex1_018",
      "rotation": [
        -0.009854854084551334,
        -0.04121389985084534,
        0.040831804275512695,
        0.9982670545578003
      ],
      "scale": [
        0.9999998807907104,
        0.9999999403953552,
        0.9999998211860657
      ],
      "translation": [
        0.18542015552520752,
        0.8681505918502808,
        -0.2823721766471863
      ]
    },
    {
      "name": "LeftIndex2_019",
      "rotation": [
        -0.05452660098671913,
        -0.18546843528747559,
        0.18414820730686188,
        0.9637000560760498
      ],
      "scale": [
        0.9999999403953552,
        1.0000001192092896,
        1.0
      ],
      "translation": [
        5.587935447692871e-09,
        0.5104905366897583,
        3.725290298461914e-08
      ]
    },
    {
      "children": [
        28
      ],
      "name": "LeftThumb1_020",
      "rotation": [
        -0.10571793466806412,
        -0.05303128808736801,
        0.048580579459667206,
        0.9917920827865601
      ],
      "translation": [
        -0.3177031874656677,
        0.4459794759750366,
        -0.5139715671539307
      ]
    },
    {
      "name": "LeftThumb2_00",
      "rotation": [
        0.1730417162179947,
        0.18157263100147247,
        -0.15612204372882843,
        0.9553605914115906
      ],
      "scale": [
        1.0,
        0.9999998807907104,
        1.0
      ],
      "translation": [
        -3.5390257835388184e-08,
        0.37907788157463074,
        1.862645149230957e-08
      ]
    },
    {
      "children": [
        30
      ],
      "name": "RightShoulder_021",
      "rotation": [
        0.6936904191970825,
        -0.4000933766365051,
        -0.43847936391830444,
        -0.40798860788345337
      ],
      "scale": [
        1.0000003576278687,
        1.000000238418579,
        1.0
      ],
      "translation": [
        -0.3100000023841858,
        0.9344241619110107,
        -0.11511293053627014
      ]
    },
    {
      "children": [
        31
      ],
      "name": "RightUpperArm_022",
      "rotation": [
        -0.216959148645401,
        0.26906466484069824,
        -0.3289986252784729,
        0.8788019418716431
      ],
      "scale": [
        0.9999998807907104,
        0.9999998807907104,
        0.9999998807907104
      ],
      "translation": [
        -2.9802322387695313e-08,
        0.5477223992347717,
        1.043081283569336e-07
      ]
    },
    {
      "children": [
        32
      ],
      "name": "RightLowerArm_023",
      "rotation": [
        -0.20281396806240082,
        0.10360857844352722,
        -0.08105380833148956,
        0.9703412055969238
      ],
      "scale": [
        1.0,
        1.0,
        1.0000001192092896
      ],
      "translation": [
        1.4901161193847656e-08,
        1.3109544515609741,
        -1.7881393432617188e-07
      ]
    },
    {
      "children": [
        33,
        35,
        37,
        39
      ],
      "name": "RightHand_024",
      "rotation": [
        0.002908771624788642,
        0.03302496299147606,
        -0.03317857161164284,
        0.9988994598388672
      ],
      "scale": [
        1.0,
        0.9999999403953552,
        0.9999999403953552
      ],
      "translation": [
        -2.9802322387695313e-08,
        0.9254722595214844,
        5.471520125865936e-08
      ]
    },
    {
      "children": [
        34
      ],
      "name": "RightMiddle1_025",
      "rotation": [
        -0.0004520731745287776,
        0.021257352083921432,
        -0.021257327869534492,
        0.9995480179786682
      ],
      "scale": [
        0.9999999403953552,
        1.0,
        0.9999999403953552
      ],
      "translation": [
        -0.21301861107349396,
        0.869851291179657,
        0.009064595215022564
      ]
    },
    {
      "name": "RightMiddle2_026",
      "rotation": [
        -0.0529087595641613,
        0.20895510911941528,
        -0.20895497500896454,
        0.9538743495941162
      ],
      "scale": [
        1.0,
        0.9999998807907104,
        0.9999999403953552
      ],
      "translation": [
        1.4534883518990682e-08,
        0.5100004076957703,
        -9.37375332910051e-09
      ]
    },
    {
      "children": [
        36
      ],
      "name": "RightPinkie1_027",
      "rotation": [
        0.04826073721051216,
        0.008619091473519802,
        -0.010680511593818665,
        0.9987404942512512
      ],
      "scale": [
        0.9999999403953552,
        1.0000001192092896,
        1.0
      ],
      "translation": [
        -0.16118691861629486,
        0.8681508898735046,
        0.2871123254299164
      ]
    },
    {
      "name": "RightPinkie2_028",
      "rotation": [
        -0.1111644059419632,
        0.18688294291496277,
        -0.2033465951681137,
        0.954655647277832
      ],
      "scale": [
        0.9999999403953552,
        1.0000001192092896,
        1.0
      ],
      "translation": [
        -5.587935447692871e-09,
        0.4120684564113617,
        1.1175870895385742e-08
      ]
    },
    {
      "children": [
        38
      ],
      "name": "RightIndex1_029",
      "rotation": [
        -0.009854854084551334,
        0.04121389985084534,
        -0.0408318005502224,
        0.9982670545578003
      ],
      "scale": [
        0.9999998807907104,
        0.9999999403953552,
        0.9999998211860657
      ],
      "translation": [
        -0.18542024493217468,
        0.8681507706642151,
        -0.28237220644950867
      ]
    },
    {
      "name": "RightIndex2_030",
      "rotation": [
        -0.054526615887880325,
        0.1854684054851532,
        -0.18414820730686188,
        0.9637000560760498
      ],
      "scale": [
        0.9999999403953552,
        0.9999999403953552,
        1.0
      ],
      "translation": [
        1.8812716007232666e-07,
        0.510490357875824,
        4.842877388000488e-08
      ]
    },
    {
      "children": [
        40
      ],
      "name": "RightThumb1_031",
      "rotation": [
        -0.10571793466806412,
        0.05303128436207771,
        -0.048580579459667206,
        0.9917920827865601
      ],
      "translation": [
        0.3177032172679901,
        0.44597992300987244,
        -0.5139715671539307
      ]
    },
    {
      "name": "RightThumb2_032",
      "rotation": [
        0.17304176092147827,
        -0.18157263100147247,
        0.15612205862998962,
        0.9553605914115906
      ],
      "scale": [
        0.9999999403953552,
        0.9999998211860657,
        0.9999999403953552
      ],
      "translation": [
        6.356276571750641e-08,
        0.37907809019088745,
        2.9802322387695313e-08
      ]
    },
    {
      "children": [
        42
      ],
      "name": "LeftUpperLeg_033",
      "rotation": [
        -0.6588071584701538,
        9.658985611338267e-09,
        -0.08282146602869034,
        0.7477390766143799
      ],
      "scale": [
        1.0,
        0.9999999403953552,
        0.9999999403953552
      ],
      "translation": [
        0.25999999046325684,
        -0.14999999105930328,
        3.4800000190734863
      ]
    },
    {
      "children": [
        43
      ],
      "name": "LeftLowerLeg_034",
      "rotation": [
        -0.018676720559597015,
        -0.020536303520202637,
        0.02096056379377842,
        0.9993948936462402
      ],
      "scale": [
        0.9999999403953552,
        1.0,
        1.0
      ],
      "translation": [
        -4.237517714500427e-08,
        1.776232361793518,
        2.2351741790771484e-08
      ]
    },
    {
      "name": "LeftFoot_035",
      "rotation": [
        -0.4547198414802551,
        0.42271944880485535,
        -0.4981406033039093,
        0.6053051352500916
      ],
      "scale": [
        0.9999998807907104,
        0.9999998211860657,
        0.9999997615814209
      ],
      "translation": [
        2.3283064365386963e-08,
        1.5203288793563843,
        7.450580596923828e-09
      ]
    },
    {
      "children": [
        45
      ],
      "name": "RightUpperLeg_036",
      "rotation": [
        -0.6588071584701538,
        -9.658985611338267e-09,
        0.08282146602869034,
        0.7477390766143799
      ],
      "scale": [
        1.0,
        0.9999999403953552,
        0.9999999403953552
      ],
      "translation": [
        -0.25999999046325684,
        -0.14999999105930328,
        3.4800000190734863
      ]
    },
    {
      "children": [
        46
      ],
      "name": "RightLowerLeg_037",
      "rotation": [
        -0.018676720559597015,
        0.020536303520202637,
        -0.02096056379377842,
        0.9993948936462402
      ],
      "scale": [
        0.9999999403953552,
        1.0,
        1.0
      ],
      "translation": [
        4.237517714500427e-08,
        1.776232361793518,
        2.2351741790771484e-08
      ]
    },
    {
      "name": "RightFoot_038",
      "rotation": [
        -0.4547198414802551,
        -0.42271944880485535,
        0.4981406033039093,
        0.6053051352500916
      ],
      "scale": [
        0.9999998807907104,
        0.9999998211860657,
        0.9999997615814209
      ],
      "translation": [
        -2.3283064365386963e-08,
        1.5203288793563843,
        7.450580596923828e-09
      ]
    }
  ],
  "samplers": [
    {
      "magFilter": 9729,
      "minFilter": 9987,
      "wrapS": 10497,
      "wrapT": 10497
    }
  ],
  "scene": 0,
  "scenes": [
    {
      "name": "Sketchfab_Scene",
      "nodes": [
        0
      ]
    }
  ],
  "skins": [
    {
      "inverseBindMatrices": 4,
      "joints": [
        5,
        8,
        9,
        10,
        11,
        12,
        13,
        14,
        15,
        16,
        17,
        18,
        19,
        20,
        21,
        22,
        23,
        24,
        25,
        26,
        27,
        28,
        29,
        30,
        31,
        32,
        33,
        34,
        35,
        36,
        37,
        38,
        39,
        40,
        41,
        42,
        43,
        44,
        45,
        46
      ],
      "skeleton": 5
    }
  ],
  "textures": [
    {
      "sampler": 0,
      "source": 0
    }
  ]
}
