{
  "accessors": [
    {
      "bufferView": 3,
      "componentType": 5126,
      "count": 1904,
      "max": [
        3.927811622619629,
        11.715156555175781,
        1.5186666250228882
      ],
      "min": [
        -3.927811622619629,
        0.013124668970704079,
        -3.4315431118011475
      ],
      "type": "VEC3"
    },
    {
      "bufferView": 3,
      "byteOffset": 22848,
      "componentType": 5126,
      "count": 1904,
      "max": [
        0.9999403357505798,
        0.9999879598617554,
        0.9999945759773254
      ],
      "min": [
        -0.9999404549598694,
        -0.9998129606246948,
        -0.9977186322212219
      ],
      "type": "VEC3"
    },
    {
      "bufferView": 2,
      "componentType": 5126,
      "count": 1904,
      "max": [
        0.9929465055465698,
        0.9935275316238403
      ],
      "min": [
        0.011768296360969543,
        0.006978042423725128
      ],
      "type": "VEC2"
    },
    {
      "bufferView": 1,
      "componentType": 5125,
      "count": 4770,
      "type": "SCALAR"
    },
    {
      "bufferView": 5,
      "componentType": 5126,
      "count": 36,
      "max": [
        1.0000001192092896,
        0.8140161037445068,
        0.6623830199241638,
        0.0,
        0.6623834371566772,
        1.0,
        0.7339354157447815,
        0.0,
        0.8140161633491516,
        0.9067922234535217,
        1.0,
        0.0,
        3.738220453262329,
        6.641234874725342,
        2.5929486751556396,
        1.0
      ],
      "min": [
        0.32906875014305115,
        -0.8140161037445068,
        -0.6623830199241638,
        0.0,
        -0.6623834371566772,
        -0.9958677887916565,
        -0.8936417102813721,
        0.0,
        -0.8140161633491516,
        -0.36196139454841614,
        -0.9958677887916565,
        0.0,
        -3.738220453262329,
        -9.90000057220459,
        -7.292583465576172,
        1.0
      ],
      "type": "MAT4"
    },
    {
      "bufferView": 0,
      "componentType": 5123,
      "count": 1904,
      "type": "VEC4"
    },
    {
      "bufferView": 4,
      "componentType": 5126,
      "count": 1904,
      "max": [
        1.0,
        0.4998692572116852,
        0.24119970202445984,
        0.06978171318769455
      ],
      "min": [
        0.39697620272636414,
        0.0,
        0.0,
        0.0
      ],
      "type": "VEC4"
    }
  ],
  "asset": {
    "extras": {
      "author": "TacticalNerd1963 (https://sketchfab.com/TacticalNerd1963)",
      "license": "CC-BY-4.0 (http://creativecommons.org/licenses/by/4.0/)",
      "source": "https://sketchfab.com/3d-models/classic-diamondhead-thanhtp-edit-8a053eb850474aa7ac98e04056e63050",
      "title": "Classic Diamondhead (thanhtp edit)"
    },
    "generator": "Sketchfab-15.86.0",
    "version": "2.0"
  },
  "bufferViews": [
    {
      "buffer": 0,
      "byteLength": 15232,
      "byteStride": 8,
      "name": "shortBufferViews",
      "target": 34962
    },
    {
      "buffer": 0,
      "byteLength": 19080,
      "byteOffset": 15232,
      "name": "floatBufferViews",
      "target": 34963
    },
    {
      "buffer": 0,
      "byteLength": 15232,
      "byteOffset": 34312,
      "byteStride": 8,
      "name": "floatBufferViews",
      "target": 34962
    },
    {
      "buffer": 0,
      "byteLength": 45696,
      "byteOffset": 49544,
      "byteStride": 12,
      "name": "floatBufferViews",
      "target": 34962
    },
    {
      "buffer": 0,
      "byteLength": 30464,
      "byteOffset": 95240,
      "byteStride": 16,
      "name": "floatBufferViews",
      "target": 34962
    },
    {
      "buffer": 0,
      "byteLength": 2304,
      "byteOffset": 125704,
      "name": "floatBufferViews"
    }
  ],
  "buffers": [
    {
      "byteLength": 128008,
      "uri": "gltf.bin"
    }
  ],
  "extensionsUsed": [
    "KHR_materials_specular"
  ],
  "images": [
    {
      "uri": "textures/M_diamondhead_baseColor.png"
    }
  ],
  "materials": [
    {
      "doubleSided": true,
      "extensions": {
        "KHR_materials_specular": {
          "specularColorFactor": [
            1.0,
            1.0,
            1.0
          ],
          "specularFactor": 0.0
        }
      },
      "name": "M_diamondhead",
      "pbrMetallicRoughness": {
        "baseColorTexture": {
          "index": 0
        },
        "metallicFactor": 0.0,
        "roughnessFactor": 0.7885257473118872
      }
    }
  ],
  "meshes": [
    {
      "name": "0",
      "primitives": [
        {
          "attributes": {
            "JOINTS_0": 5,
            "NORMAL": 1,
            "POSITION": 0,
            "TEXCOORD_0": 2,
            "WEIGHTS_0": 6
          },
          "indices": 3,
          "material": 0,
          "mode": 4
        }
      ]
    }
  ],
  "nodes": [
    {
      "children": [
        1
      ],
      "matrix": [
        0.17241379618644714,
        0.0,
        0.0,
        0.0,
        0.0,
        3.8283553257844526e-17,
        -0.17241379618644714,
        0.0,
        0.0,
        0.17241379618644714,
        3.8283553257844526e-17,
        0.0,
        0.0,
        0.0,
        0.0,
        1.0
      ],
      "name": "Sketchfab_model"
    },
    {
      "children": [
        2
      ],
      "matrix": [
        0.009999999776482582,
        0.0,
        0.0,
        0.0,
        0.0,
        0.0,
        0.009999999776482582,
        0.0,
        0.0,
        -0.009999999776482582,
        0.0,
        0.0,
        0.0,
        0.0,
        0.0,
        1.0
      ],
      "name": "PTE_Diamondhead.fbx"
    },
    {
      "children": [
        3
      ],
      "name": "RootNode"
    },
    {
      "children": [
        4
      ],
      "matrix": [
        100.0,
        0.0,
        0.0,
        0.0,
        0.0,
        -2.8212996916465727e-05,
        -99.99999999999602,
        0.0,
        0.0,
        99.99999999999602,
        -2.8212996916465727e-05,
        0.0,
        0.0,
        0.0,
        0.0,
        1.0
      ],
      "name": "Armature"
    },
    {
      "children": [
        5,
        7,
        6
      ],
      "name": "Object_4"
    },
    {
      "children": [
        8
      ],
      "name": "_rootJoint"
    },
    {
      "matrix": [
        100.0,
        -2.220446013960195e-14,
        -2.2204456874938017e-14,
        0.0,
        2.2204458463212208e-14,
        100.00000000000142,
        -7.549790865368778e-06,
        0.0,
        2.2204458551328637e-14,
        7.549790865368778e-06,
        100.00000000000142,
        0.0,
        0.0,
        -1.9073486328125e-05,
        2.3434900125064023e-12,
        1.0
      ],
      "name": "Object_6"
    },
    {
      "mesh": 0,
      "name": "Object_7",
      "skin": 0
    },
    {
      "children": [
        9,
        37,
        40
      ],
      "name": "Hips_01",
      "rotation": [
        0.7071068286895752,
        0.0,
        0.0,
        0.7071067094802856
      ],
      "translation": [
        0.0,
        -2.117582368135751e-22,
        5.299999713897705
      ]
    },
    {
      "children": [
        10
      ],
      "name": "Spine_02",
      "rotation": [
        -6.617444900424222e-24,
        -0.0,
        0.0,
        1.0
      ],
      "translation": [
        0.0,
        0.9000000953674316,
        1.0587911840678754e-22
      ]
    },
    {
      "children": [
        11,
        13,
        25
      ],
      "name": "Chest_03",
      "rotation": [
        -1.2335265253682337e-08,
        -0.0,
        0.0,
        1.0
      ],
      "translation": [
        0.0,
        1.200000286102295,
        0.0
      ]
    },
    {
      "children": [
        12
      ],
      "name": "Neck_04",
      "rotation": [
        1.2335266141860757e-08,
        0.0,
        0.0,
        1.0
      ],
      "translation": [
        0.0,
        1.700000286102295,
        -1.0658141036401503e-14
      ]
    },
    {
      "name": "Head_05",
      "rotation": [
        -8.881784197001252e-16,
        -0.0,
        0.0,
        1.0
      ],
      "translation": [
        0.0,
        0.8000001907348633,
        1.7763466750048834e-16
      ]
    },
    {
      "children": [
        14
      ],
      "name": "LeftShoulder_06",
      "rotation": [
        0.7976559400558472,
        0.3770347237586975,
        0.3770347535610199,
        -0.28184154629707336
      ],
      "scale": [
        0.9999997615814209,
        0.9999997615814209,
        0.9999998807907104
      ],
      "translation": [
        1.4075956344604492,
        1.4868254661560059,
        -0.3999998867511749
      ]
    },
    {
      "children": [
        15
      ],
      "name": "LeftUpperArm_07",
      "rotation": [
        -0.10557211190462112,
        -0.21543188393115997,
        0.2965202331542969,
        0.9244021773338318
      ],
      "scale": [
        1.0000001192092896,
        1.0,
        1.0000001192092896
      ],
      "translation": [
        -2.980232238769531e-07,
        1.2098138332366943,
        5.960464477539063e-07
      ]
    },
    {
      "children": [
        16
      ],
      "name": "LeftLowerArm_08",
      "rotation": [
        -0.29510369896888733,
        -0.14468532800674438,
        0.12001516669988632,
        0.9367904663085938
      ],
      "scale": [
        0.9999998807907104,
        0.9999998807907104,
        0.9999997615814209
      ],
      "translation": [
        -8.940696716308594e-08,
        1.9339081048965454,
        -4.172325134277344e-07
      ]
    },
    {
      "children": [
        17,
        19,
        21,
        23
      ],
      "name": "LefthHand_09",
      "rotation": [
        0.0474432110786438,
        5.380432526180812e-07,
        -7.384755917883012e-07,
        0.9988739490509033
      ],
      "scale": [
        0.9999998211860657,
        1.0,
        0.9999998211860657
      ],
      "translation": [
        4.284090238115823e-08,
        2.3810079097747803,
        2.2189396986505017e-08
      ]
    },
    {
      "children": [
        18
      ],
      "name": "LeftIndex1_010",
      "rotation": [
        -0.0018399073742330074,
        -0.14479446411132813,
        0.13219135999679565,
        0.9805899262428284
      ],
      "scale": [
        1.0,
        0.9999998807907104,
        1.0000001192092896
      ],
      "translation": [
        0.30759701132774353,
        0.41341033577919006,
        -0.42420825362205505
      ]
    },
    {
      "name": "LeftIndex2_011",
      "rotation": [
        -0.02281455509364605,
        -0.23990382254123688,
        0.22436386346817017,
        0.9442386031150818
      ],
      "scale": [
        1.000000238418579,
        1.0,
        1.0
      ],
      "translation": [
        1.4901161193847656e-07,
        0.7730459570884705,
        -1.1920928955078125e-07
      ]
    },
    {
      "children": [
        20
      ],
      "name": "LeftMiddle1_012",
      "rotation": [
        0.07388532906770706,
        -0.09424823522567749,
        0.08604492992162704,
        0.9890674948692322
      ],
      "scale": [
        1.0000001192092896,
        0.9999999403953552,
        1.0000003576278687
      ],
      "translation": [
        -0.02240389958024025,
        0.6179077625274658,
        -0.023982999846339226
      ]
    },
    {
      "name": "LeftMiddle2_013",
      "rotation": [
        -0.04766151309013367,
        -0.2697170078754425,
        0.2948220372200012,
        0.9154567718505859
      ],
      "scale": [
        0.9999998807907104,
        0.9999998807907104,
        0.9999999403953552
      ],
      "translation": [
        3.129243850708008e-07,
        0.48877471685409546,
        4.470348358154297e-08
      ]
    },
    {
      "children": [
        22
      ],
      "name": "LeftPinkie1_014",
      "rotation": [
        0.09046167880296707,
        -0.1497686356306076,
        0.13673265278339386,
        0.9750334620475769
      ],
      "scale": [
        1.0000001192092896,
        1.0,
        1.0000001192092896
      ],
      "translation": [
        -0.19240450859069824,
        0.5652968287467957,
        0.3327130377292633
      ]
    },
    {
      "name": "LeftPinkie2_015",
      "rotation": [
        -0.013108884915709496,
        -0.26847612857818604,
        0.29903656244277954,
        0.915601372718811
      ],
      "scale": [
        1.0000003576278687,
        1.0000001192092896,
        1.0000001192092896
      ],
      "translation": [
        -2.086162567138672e-07,
        0.4085352122783661,
        2.9802322387695313e-08
      ]
    },
    {
      "children": [
        24
      ],
      "name": "LeftThumb1_016",
      "rotation": [
        -0.21026818454265594,
        -0.18922416865825653,
        0.1727534681558609,
        0.9434711337089539
      ],
      "scale": [
        0.9999998807907104,
        1.0000001192092896,
        1.0000001192092896
      ],
      "translation": [
        -0.27240222692489624,
        0.04042884334921837,
        -0.518471360206604
      ]
    },
    {
      "name": "LeftThumb2_017",
      "rotation": [
        0.20252525806427002,
        0.07520908117294312,
        -0.10500899702310562,
        0.9707216024398804
      ],
      "scale": [
        1.0000001192092896,
        1.0,
        1.0
      ],
      "translation": [
        2.421438694000244e-07,
        0.44642916321754456,
        1.2665987014770508e-07
      ]
    },
    {
      "children": [
        26
      ],
      "name": "RightShoulder_018",
      "rotation": [
        0.7976559400558472,
        -0.3770347237586975,
        -0.3770347535610199,
        -0.28184154629707336
      ],
      "scale": [
        0.9999997615814209,
        0.9999997615814209,
        0.9999998211860657
      ],
      "translation": [
        -1.4075956344604492,
        1.4868254661560059,
        -0.3999998867511749
      ]
    },
    {
      "children": [
        27
      ],
      "name": "RightUpperArm_019",
      "rotation": [
        -0.10557212680578232,
        0.21543189883232117,
        -0.29652026295661926,
        0.9244021773338318
      ],
      "scale": [
        1.0000001192092896,
        1.0000001192092896,
        1.000000238418579
      ],
      "translation": [
        -2.086162567138672e-07,
        1.2098139524459839,
        3.8743019104003906e-07
      ]
    },
    {
      "children": [
        28
      ],
      "name": "RightLowerArm_020",
      "rotation": [
        -0.2951037287712097,
        0.1446853131055832,
        -0.12001516669988632,
        0.936790406703949
      ],
      "scale": [
        1.0,
        0.9999999403953552,
        0.9999998807907104
      ],
      "translation": [
        1.1920928955078125e-07,
        1.9339083433151245,
        -1.7881393432617188e-07
      ]
    },
    {
      "children": [
        29,
        31,
        33,
        35
      ],
      "name": "RighthHand_021",
      "rotation": [
        0.047443218529224396,
        -5.380433663049189e-07,
        7.38475705475139e-07,
        0.9988739490509033
      ],
      "scale": [
        0.9999998807907104,
        1.0000001192092896,
        0.9999998807907104
      ],
      "translation": [
        2.7639342192742333e-07,
        2.3810079097747803,
        -6.108217576183961e-08
      ]
    },
    {
      "children": [
        30
      ],
      "name": "RightIndex1_022",
      "rotation": [
        -0.001839907723478973,
        0.1447944939136505,
        -0.13219138979911804,
        0.9805899262428284
      ],
      "scale": [
        0.9999998807907104,
        0.9999998211860657,
        1.0000001192092896
      ],
      "translation": [
        -0.30759668350219727,
        0.41340988874435425,
        -0.4242083728313446
      ]
    },
    {
      "name": "RightIndex2_023",
      "rotation": [
        -0.02281455136835575,
        0.23990389704704285,
        -0.22436390817165375,
        0.9442386627197266
      ],
      "scale": [
        1.0000001192092896,
        1.0000001192092896,
        1.0000001192092896
      ],
      "translation": [
        -2.4586915969848633e-07,
        0.7730457782745361,
        0.0
      ]
    },
    {
      "children": [
        32
      ],
      "name": "RightMiddle1_024",
      "rotation": [
        0.07388535141944885,
        0.09424826502799988,
        -0.08604495227336884,
        0.9890674948692322
      ],
      "scale": [
        1.0000001192092896,
        1.0,
        1.0000003576278687
      ],
      "translation": [
        0.022404242306947708,
        0.6179077625274658,
        -0.02398301474750042
      ]
    },
    {
      "name": "RightMiddle2_00",
      "rotation": [
        -0.04766149818897247,
        0.2697170078754425,
        -0.2948220372200012,
        0.9154567718505859
      ],
      "scale": [
        0.9999998807907104,
        0.9999997615814209,
        0.9999998807907104
      ],
      "translation": [
        7.450580596923828e-08,
        0.4887743294239044,
        1.4901161193847656e-07
      ]
    },
    {
      "children": [
        34
      ],
      "name": "RightPinkie1_025",
      "rotation": [
        0.09046167880296707,
        0.1497686356306076,
        -0.13673265278339386,
        0.9750334620475769
      ],
      "scale": [
        0.9999999403953552,
        1.0,
        1.0
      ],
      "translation": [
        0.1924048513174057,
        0.5652963519096375,
        0.3327130675315857
      ]
    },
    {
      "name": "RightPinkie2_026",
      "rotation": [
        -0.013108878396451473,
        0.26847612857818604,
        -0.29903656244277954,
        0.915601372718811
      ],
      "scale": [
        1.000000238418579,
        1.0000001192092896,
        1.0000001192092896
      ],
      "translation": [
        -1.4901161193847656e-07,
        0.4085352122783661,
        -2.9802322387695313e-08
      ]
    },
    {
      "children": [
        36
      ],
      "name": "RightThumb1_027",
      "rotation": [
        -0.21026818454265594,
        0.18922413885593414,
        -0.1727534532546997,
        0.9434711337089539
      ],
      "scale": [
        0.9999998211860657,
        0.9999999403953552,
        1.0000001192092896
      ],
      "translation": [
        0.2724025249481201,
        0.04042895510792732,
        -0.5184714794158936
      ]
    },
    {
      "name": "RightThumb2_028",
      "rotation": [
        0.20252524316310883,
        -0.07520906627178192,
        0.10500900447368622,
        0.9707214832305908
      ],
      "scale": [
        1.0,
        1.0,
        1.000000238418579
      ],
      "translation": [
        3.725290298461914e-08,
        0.4464295506477356,
        3.948807716369629e-07
      ]
    },
    {
      "children": [
        38
      ],
      "name": "LeftUpperLeg_029",
      "rotation": [
        0.9831042289733887,
        0.11116908490657806,
        0.1111682578921318,
        -0.09375143051147461
      ],
      "scale": [
        0.9999973177909851,
        0.9999996423721313,
        0.9999991059303284
      ],
      "translation": [
        0.7999999523162842,
        -4.76837158203125e-07,
        0.0
      ]
    },
    {
      "children": [
        39
      ],
      "name": "LeftLowerLeg_030",
      "rotation": [
        -0.05166427791118622,
        -0.048879072070121765,
        0.04626830294728279,
        0.9963940382003784
      ],
      "scale": [
        0.9999999403953552,
        0.9999998807907104,
        0.9999997615814209
      ],
      "translation": [
        -7.450580596923828e-08,
        1.8794935941696167,
        -5.960464477539063e-08
      ]
    },
    {
      "name": "LeftFoot_031",
      "rotation": [
        -0.5682974457740784,
        -0.03361432999372482,
        -0.03990015760064125,
        0.821167528629303
      ],
      "scale": [
        0.9999998807907104,
        1.0,
        1.0
      ],
      "translation": [
        1.043081283569336e-07,
        2.6310644149780273,
        8.940696716308594e-08
      ]
    },
    {
      "children": [
        41
      ],
      "name": "RightUpperLeg_032",
      "rotation": [
        0.9831042289733887,
        -0.11116909235715866,
        -0.1111682653427124,
        -0.09375143051147461
      ],
      "scale": [
        0.9999973773956299,
        0.9999995827674866,
        0.999998927116394
      ],
      "translation": [
        -0.7999999523162842,
        -4.76837158203125e-07,
        0.0
      ]
    },
    {
      "children": [
        42
      ],
      "name": "RightLowerLeg_033",
      "rotation": [
        -0.051664285361766815,
        0.048879075795412064,
        -0.04626830667257309,
        0.9963940382003784
      ],
      "scale": [
        0.9999998807907104,
        0.9999998807907104,
        0.9999997019767761
      ],
      "translation": [
        6.705522537231445e-08,
        1.879494071006775,
        4.470348358154297e-08
      ]
    },
    {
      "name": "RightFoot_034",
      "rotation": [
        -0.5682974457740784,
        0.033614326268434525,
        0.03990015387535095,
        0.821167528629303
      ],
      "scale": [
        0.9999998807907104,
        1.0000001192092896,
        1.0
      ],
      "translation": [
        -2.2351741790771484e-08,
        2.6310648918151855,
        7.450580596923828e-09
      ]
    }
  ],
  "samplers": [
    {
      "magFilter": 9729,
      "minFilter": 9987,
      "wrapS": 10497,
      "wrapT": 10497
    }
  ],
  "scene": 0,
  "scenes": [
    {
      "name": "Sketchfab_Scene",
      "nodes": [
        0
      ]
    }
  ],
  "skins": [
    {
      "inverseBindMatrices": 4,
      "joints": [
        5,
        8,
        9,
        10,
        11,
        12,
        13,
        14,
        15,
        16,
        17,
        18,
        19,
        20,
        21,
        22,
        23,
        24,
        25,
        26,
        27,
        28,
        29,
        30,
        31,
        32,
        33,
        34,
        35,
        36,
        37,
        38,
        39,
        40,
        41,
        42
      ],
      "skeleton": 5
    }
  ],
  "textures": [
    {
      "sampler": 0,
      "source": 0
    }
  ]
}
