{
  "accessors": [
    {
      "bufferView": 3,
      "componentType": 5126,
      "count": 1011,
      "max": [
        1.3129056692123413,
        2.220242738723755,
        0.16991055011749268
      ],
      "min": [
        -1.3129056692123413,
        0.13690203428268433,
        -0.7812647223472595
      ],
      "type": "VEC3"
    },
    {
      "bufferView": 3,
      "byteOffset": 12132,
      "componentType": 5126,
      "count": 1011,
      "max": [
        0.9938686490058899,
        0.9999828338623047,
        0.9997643232345581
      ],
      "min": [
        -0.9931468367576599,
        -0.9986820220947266,
        -0.9999516606330872
      ],
      "type": "VEC3"
    },
    {
      "bufferView": 2,
      "componentType": 5126,
      "count": 1011,
      "max": [
        0.9879398345947266,
        0.9937049150466919
      ],
      "min": [
        0.005651973187923431,
        0.009685397148132324
      ],
      "type": "VEC2"
    },
    {
      "bufferView": 1,
      "componentType": 5125,
      "count": 4584,
      "type": "SCALAR"
    },
    {
      "bufferView": 5,
      "componentType": 5126,
      "count": 42,
      "max": [
        100.0,
        1.0000001192092896,
        0.7910915017127991,
        0.0,
        0.7910915613174438,
        100.0,
        1.0000001192092896,
        0.0,
        1.0000001192092896,
        0.5828478336334229,
        100.0,
        0.0,
        1.713263988494873,
        1.2755460739135742,
        0.5733360052108765,
        1.0
      ],
      "min": [
        -0.3168693482875824,
        -1.000000238418579,
        -0.7910914421081543,
        0.0,
        -0.7910915017127991,
        -0.9945054650306702,
        -0.4706781208515167,
        0.0,
        -1.0000001192092896,
        -0.9675869345664978,
        -0.9944756627082825,
        0.0,
        -1.7132636308670044,
        -2.0199997425079346,
        -2.0924785137176514,
        1.0
      ],
      "type": "MAT4"
    },
    {
      "bufferView": 0,
      "componentType": 5123,
      "count": 1011,
      "type": "VEC4"
    },
    {
      "bufferView": 4,
      "componentType": 5126,
      "count": 1011,
      "max": [
        1.0,
        0.49959203600883484,
        0.10215488076210022,
        0.0
      ],
      "min": [
        0.5004079937934875,
        0.0,
        0.0,
        0.0
      ],
      "type": "VEC4"
    }
  ],
  "asset": {
    "extras": {
      "author": "TacticalNerd1963 (https://sketchfab.com/TacticalNerd1963)",
      "license": "CC-BY-4.0 (http://creativecommons.org/licenses/by/4.0/)",
      "source": "https://sketchfab.com/3d-models/ghostfreak-ben-10-vilgax-attacks-fan-model-42c90bd197494887acc7fcda9bdbdd0f",
      "title": "Ghostfreak (Ben 10: Vilgax Attacks fan model)"
    },
    "generator": "Sketchfab-15.99.0",
    "version": "2.0"
  },
  "bufferViews": [
    {
      "buffer": 0,
      "byteLength": 8088,
      "byteStride": 8,
      "name": "shortBufferViews",
      "target": 34962
    },
    {
      "buffer": 0,
      "byteLength": 18336,
      "byteOffset": 8088,
      "name": "floatBufferViews",
      "target": 34963
    },
    {
      "buffer": 0,
      "byteLength": 8088,
      "byteOffset": 26424,
      "byteStride": 8,
      "name": "floatBufferViews",
      "target": 34962
    },
    {
      "buffer": 0,
      "byteLength": 24264,
      "byteOffset": 34512,
      "byteStride": 12,
      "name": "floatBufferViews",
      "target": 34962
    },
    {
      "buffer": 0,
      "byteLength": 16176,
      "byteOffset": 58776,
      "byteStride": 16,
      "name": "floatBufferViews",
      "target": 34962
    },
    {
      "buffer": 0,
      "byteLength": 2688,
      "byteOffset": 74952,
      "name": "floatBufferViews"
    }
  ],
  "buffers": [
    {
      "byteLength": 77640,
      "uri": "scene.bin"
    }
  ],
  "extensionsRequired": [
    "KHR_materials_pbrSpecularGlossiness"
  ],
  "extensionsUsed": [
    "KHR_materials_pbrSpecularGlossiness"
  ],
  "images": [
    {
      "uri": "textures/material_atlas_24243_1_diffuse.png"
    }
  ],
  "materials": [
    {
      "doubleSided": true,
      "extensions": {
        "KHR_materials_pbrSpecularGlossiness": {
          "diffuseFactor": [
            1.0,
            1.0,
            1.0,
            1.0
          ],
          "diffuseTexture": {
            "index": 0
          },
          "glossinessFactor": 0.1788854381999832,
          "specularFactor": [
            0.0,
            0.0,
            0.0
          ]
        }
      },
      "name": "material_atlas_24243_1"
    }
  ],
  "meshes": [
    {
      "name": "Ectonurite_material_atlas_24243_1_0",
      "primitives": [
        {
          "attributes": {
            "JOINTS_0": 5,
            "NORMAL": 1,
            "POSITION": 0,
            "TEXCOORD_0": 2,
            "WEIGHTS_0": 6
          },
          "indices": 3,
          "material": 0,
          "mode": 4
        }
      ]
    }
  ],
  "nodes": [
    {
      "children": [
        1
      ],
      "matrix": [
        0.9090909361839294,
        0.0,
        0.0,
        0.0,
        0.0,
        2.0185873776588746e-16,
        -0.9090909361839294,
        0.0,
        0.0,
        0.9090909361839294,
        2.0185873776588746e-16,
        0.0,
        0.0,
        0.0,
        0.0,
        1.0
      ],
      "name": "Sketchfab_model"
    },
    {
      "children": [
        2
      ],
      "matrix": [
        0.009999999776482582,
        0.0,
        0.0,
        0.0,
        0.0,
        0.0,
        0.009999999776482582,
        0.0,
        0.0,
        -0.009999999776482582,
        0.0,
        0.0,
        0.0,
        0.0,
        0.0,
        1.0
      ],
      "name": "XL_Ghostfreak.fbx"
    },
    {
      "children": [
        3
      ],
      "name": "RootNode"
    },
    {
      "children": [
        4
      ],
      "matrix": [
        100.0,
        0.0,
        0.0,
        0.0,
        0.0,
        -1.629206793918314e-05,
        -99.99999999999868,
        0.0,
        0.0,
        99.99999999999868,
        -1.629206793918314e-05,
        0.0,
        0.0,
        0.0,
        0.0,
        1.0
      ],
      "name": "Armature"
    },
    {
      "children": [
        5,
        7,
        6
      ],
      "name": "Object_4"
    },
    {
      "children": [
        8
      ],
      "name": "_rootJoint"
    },
    {
      "matrix": [
        100.0,
        0.0,
        0.0,
        0.0,
        0.0,
        6.123233995736766e-15,
        -100.0,
        0.0,
        0.0,
        100.0,
        6.123233995736766e-15,
        0.0,
        0.0,
        -1.239776611328125e-05,
        2.2351741790771484e-08,
        1.0
      ],
      "name": "Object_6"
    },
    {
      "mesh": 0,
      "name": "Object_7",
      "skin": 0
    },
    {
      "children": [
        9,
        45
      ],
      "name": "Hips_01",
      "rotation": [
        0.7071068286895752,
        0.0,
        0.0,
        0.7071067094802856
      ],
      "translation": [
        0.0,
        -0.009999999776482582,
        1.2100001573562622
      ]
    },
    {
      "children": [
        10
      ],
      "name": "Spine_02",
      "rotation": [
        -0.038376521319150925,
        -0.0,
        0.0,
        0.999263346195221
      ],
      "translation": [
        0.0,
        0.1400001049041748,
        0.0
      ]
    },
    {
      "children": [
        11,
        13,
        29
      ],
      "name": "Chest_03",
      "rotation": [
        0.038376521319150925,
        0.0,
        0.0,
        0.999263346195221
      ],
      "translation": [
        0.0,
        0.13038408756256104,
        0.0
      ]
    },
    {
      "children": [
        12
      ],
      "name": "Neck_04",
      "rotation": [
        0.055300358682870865,
        1.1902695717935785e-07,
        6.592321799558931e-09,
        0.9984697699546814
      ],
      "translation": [
        0.0,
        0.44999992847442627,
        0.0
      ]
    },
    {
      "name": "Head_05",
      "rotation": [
        -0.05530036240816116,
        -3.5525910284297385e-14,
        -1.3184641822761023e-08,
        0.9984697699546814
      ],
      "scale": [
        1.0,
        1.0,
        0.9999999403953552
      ],
      "translation": [
        -5.551115123125783e-15,
        0.09055396169424057,
        0.0
      ]
    },
    {
      "children": [
        14
      ],
      "name": "LeftShoulder_06",
      "rotation": [
        0.6341153979301453,
        0.4405934512615204,
        0.44059351086616516,
        -0.4578781723976135
      ],
      "scale": [
        0.9999999403953552,
        0.9999998211860657,
        0.9999998807907104
      ],
      "translation": [
        0.1599999964237213,
        0.43999969959259033,
        -0.019999999552965164
      ]
    },
    {
      "children": [
        15
      ],
      "name": "LeftUpperArm_07",
      "rotation": [
        0.08811860531568527,
        0.08811857551336288,
        -0.1054033488035202,
        0.9865902662277222
      ],
      "scale": [
        0.9999999403953552,
        0.9999999403953552,
        0.9999999403953552
      ],
      "translation": [
        -3.725290298461914e-09,
        0.1039230152964592,
        1.2433156371116638e-07
      ]
    },
    {
      "children": [
        16,
        17,
        20,
        23,
        26
      ],
      "name": "LeftLowerArm_08",
      "rotation": [
        -3.311398932837051e-10,
        -5.648781442602058e-09,
        -0.05852092429995537,
        0.9982861876487732
      ],
      "scale": [
        1.0,
        1.0,
        0.9999999403953552
      ],
      "translation": [
        -2.9802258438849094e-09,
        0.34000009298324585,
        -9.536747391791778e-09
      ]
    },
    {
      "name": "LeftHand_09",
      "rotation": [
        1.3877787807814457e-16,
        -1.1657341758564144e-15,
        1.1175870895385742e-08,
        1.0
      ],
      "translation": [
        7.782293920399752e-09,
        0.3423449397087097,
        -1.2764145296273455e-08
      ]
    },
    {
      "children": [
        18
      ],
      "name": "LeftMiddle1_010",
      "rotation": [
        0.08473332971334457,
        0.0952863022685051,
        0.06622400134801865,
        0.9896238446235657
      ],
      "scale": [
        1.0,
        1.0,
        1.0000001192092896
      ],
      "translation": [
        0.0006426517502404749,
        0.5337308645248413,
        -0.011000052094459534
      ]
    },
    {
      "children": [
        19
      ],
      "name": "LeftMiddle2_011",
      "rotation": [
        -0.192432701587677,
        -0.18884991109371185,
        0.002373760100454092,
        0.9629640579223633
      ],
      "scale": [
        1.0,
        1.0,
        0.9999999403953552
      ],
      "translation": [
        2.7939677238464355e-08,
        0.061000049114227295,
        -5.774199962615967e-08
      ]
    },
    {
      "name": "LeftMiddle3_012",
      "rotation": [
        -0.2219170778989792,
        -0.23567624390125275,
        0.09020693600177765,
        0.9418452382087708
      ],
      "scale": [
        1.0,
        1.0000001192092896,
        1.0
      ],
      "translation": [
        1.862645149230957e-08,
        0.06844708323478699,
        6.984919309616089e-08
      ]
    },
    {
      "children": [
        21
      ],
      "name": "LeftIndex1_013",
      "rotation": [
        0.0912519097328186,
        0.1026167944073677,
        -0.1147056370973587,
        0.9838626384735107
      ],
      "translation": [
        0.03160557523369789,
        0.5273045301437378,
        -0.011000052094459534
      ]
    },
    {
      "children": [
        22
      ],
      "name": "LeftIndex2_014",
      "rotation": [
        -0.1823747307062149,
        -0.2507660686969757,
        0.04028843715786934,
        0.9498593211174011
      ],
      "scale": [
        0.9999998807907104,
        1.0,
        1.0000001192092896
      ],
      "translation": [
        1.4901161193847656e-08,
        0.07050548493862152,
        7.916241884231567e-08
      ]
    },
    {
      "name": "LeftIndex3_015",
      "rotation": [
        -0.1724323332309723,
        -0.2640747129917145,
        0.12932159006595612,
        0.9401103854179382
      ],
      "scale": [
        1.0,
        1.0,
        1.0000001192092896
      ],
      "translation": [
        -3.725290298461914e-08,
        0.0663401335477829,
        1.3969838619232178e-07
      ]
    },
    {
      "children": [
        24
      ],
      "name": "LeftPinkie1_016",
      "rotation": [
        0.10491270571947098,
        0.11797888576984406,
        0.14762535691261292,
        0.9763611555099487
      ],
      "scale": [
        1.0,
        0.9999999403953552,
        1.0
      ],
      "translation": [
        -0.035636574029922485,
        0.525435209274292,
        -0.011000052094459534
      ]
    },
    {
      "children": [
        25
      ],
      "name": "LeftPinkie2_017",
      "rotation": [
        -0.24408182501792908,
        -0.2039080709218979,
        -0.004122170154005289,
        0.9480656981468201
      ],
      "scale": [
        1.0000001192092896,
        1.0,
        1.0
      ],
      "translation": [
        -2.421438694000244e-08,
        0.04589100554585457,
        -7.310882210731506e-08
      ]
    },
    {
      "name": "LeftPinkie3_018",
      "rotation": [
        -0.1593475490808487,
        -0.13959813117980957,
        0.027086304500699043,
        0.9769274592399597
      ],
      "scale": [
        1.0,
        0.9999999403953552,
        0.9999999403953552
      ],
      "translation": [
        -2.0489096641540527e-08,
        0.05635598674416542,
        -3.771856427192688e-08
      ]
    },
    {
      "children": [
        27
      ],
      "name": "LeftThumb1_00",
      "rotation": [
        0.5698337554931641,
        0.6408030390739441,
        -0.21139734983444214,
        -0.4690118432044983
      ],
      "scale": [
        1.0000001192092896,
        1.0000003576278687,
        1.0000001192092896
      ],
      "translation": [
        0.06081589683890343,
        0.450189471244812,
        -0.011000051163136959
      ]
    },
    {
      "children": [
        28
      ],
      "name": "LeftThumb2_019",
      "rotation": [
        0.10051470249891281,
        0.417013555765152,
        -0.20376978814601898,
        0.8800422549247742
      ],
      "scale": [
        0.9999998211860657,
        1.0,
        0.9999999403953552
      ],
      "translation": [
        1.7508864402770996e-07,
        0.0608358234167099,
        5.960464477539063e-08
      ]
    },
    {
      "name": "LeftThumb3_020",
      "rotation": [
        0.02791552245616913,
        0.01753813959658146,
        0.01581514999270439,
        0.9993312954902649
      ],
      "scale": [
        1.0,
        1.0000001192092896,
        1.0
      ],
      "translation": [
        6.705522537231445e-08,
        0.06004996597766876,
        0.0
      ]
    },
    {
      "children": [
        30
      ],
      "name": "RightShoulder_021",
      "rotation": [
        0.6341128945350647,
        -0.440594881772995,
        -0.44059494137763977,
        -0.45787888765335083
      ],
      "scale": [
        1.0,
        0.9999998807907104,
        0.9999999403953552
      ],
      "translation": [
        -0.1599999964237213,
        0.43999969959259033,
        -0.019999999552965164
      ]
    },
    {
      "children": [
        31
      ],
      "name": "RightUpperArm_022",
      "rotation": [
        0.08811695873737335,
        -0.08811694383621216,
        0.10540100932121277,
        0.9865908026695251
      ],
      "scale": [
        1.0,
        0.9999998211860657,
        0.9999999403953552
      ],
      "translation": [
        -1.1175870895385742e-08,
        0.10392516851425171,
        5.494803190231323e-08
      ]
    },
    {
      "children": [
        32,
        33,
        36,
        39,
        42
      ],
      "name": "RightLowerArm_023",
      "rotation": [
        1.0218753621060728e-09,
        -2.556185263458133e-09,
        0.05852089077234268,
        0.9982861876487732
      ],
      "scale": [
        1.0,
        1.0000001192092896,
        1.0
      ],
      "translation": [
        5.215439191630367e-09,
        0.34000006318092346,
        1.1861324367146153e-07
      ]
    },
    {
      "name": "RightHand_024",
      "rotation": [
        1.1341519171433273e-15,
        -2.5673907444456745e-15,
        5.21540641784668e-08,
        1.0
      ],
      "translation": [
        5.10345654625155e-11,
        0.34234490990638733,
        -2.19907025922339e-09
      ]
    },
    {
      "children": [
        34
      ],
      "name": "RightMiddle1_025",
      "rotation": [
        0.08473330736160278,
        -0.09528622776269913,
        -0.06622395664453506,
        0.9896237850189209
      ],
      "scale": [
        1.0,
        0.9999998211860657,
        1.0
      ],
      "translation": [
        -0.0006426554173231125,
        0.5337308645248413,
        -0.011000039055943489
      ]
    },
    {
      "children": [
        35
      ],
      "name": "RightMiddle2_026",
      "rotation": [
        -0.19243264198303223,
        0.18884989619255066,
        -0.002373781055212021,
        0.9629640579223633
      ],
      "translation": [
        5.587935447692871e-09,
        0.061000045388936996,
        -2.9802322387695313e-08
      ]
    },
    {
      "name": "RightMiddle3_027",
      "rotation": [
        -0.2219170331954956,
        0.235676109790802,
        -0.09020688384771347,
        0.941845178604126
      ],
      "scale": [
        1.0000001192092896,
        1.0,
        1.0
      ],
      "translation": [
        5.4016709327697754e-08,
        0.06844710558652878,
        -2.0023435354232788e-08
      ]
    },
    {
      "children": [
        37
      ],
      "name": "RightIndex1_028",
      "rotation": [
        0.0912519320845604,
        -0.1026168167591095,
        0.11470568180084229,
        0.9838626384735107
      ],
      "scale": [
        1.0,
        1.0000001192092896,
        1.0000001192092896
      ],
      "translation": [
        -0.03160557150840759,
        0.5273046493530273,
        -0.011000039055943489
      ]
    },
    {
      "children": [
        38
      ],
      "name": "RightIndex2_029",
      "rotation": [
        -0.18237480521202087,
        0.25076615810394287,
        -0.040288474410772324,
        0.9498593807220459
      ],
      "scale": [
        0.9999999403953552,
        1.0,
        1.0
      ],
      "translation": [
        -1.4901161193847656e-08,
        0.07050523161888123,
        -3.632158041000366e-08
      ]
    },
    {
      "name": "RightIndex3_030",
      "rotation": [
        -0.1724323183298111,
        0.2640746533870697,
        -0.12932151556015015,
        0.940110445022583
      ],
      "scale": [
        0.9999998807907104,
        0.9999998211860657,
        1.0
      ],
      "translation": [
        -3.725290298461914e-08,
        0.06634011119604111,
        -1.1175870895385742e-08
      ]
    },
    {
      "children": [
        40
      ],
      "name": "RightPinkie1_031",
      "rotation": [
        0.10491269826889038,
        -0.11797887831926346,
        -0.14762532711029053,
        0.9763611555099487
      ],
      "translation": [
        0.035636577755212784,
        0.525435209274292,
        -0.011000039987266064
      ]
    },
    {
      "children": [
        41
      ],
      "name": "RightPinkie2_032",
      "rotation": [
        -0.2440817803144455,
        0.2039080709218979,
        0.004122142679989338,
        0.9480656981468201
      ],
      "scale": [
        1.0,
        1.0,
        1.0000001192092896
      ],
      "translation": [
        7.450580596923828e-08,
        0.04589109867811203,
        -6.938353180885315e-08
      ]
    },
    {
      "name": "RightPinkie3_033",
      "rotation": [
        -0.1593475639820099,
        0.13959816098213196,
        -0.02708628959953785,
        0.9769273400306702
      ],
      "scale": [
        1.0000001192092896,
        1.0000001192092896,
        1.0
      ],
      "translation": [
        -4.470348358154297e-08,
        0.05635619908571243,
        -1.587904989719391e-07
      ]
    },
    {
      "children": [
        43
      ],
      "name": "RightThumb1_034",
      "rotation": [
        -0.5698337554931641,
        0.6408030986785889,
        -0.21139736473560333,
        0.46901172399520874
      ],
      "scale": [
        1.0,
        1.000000238418579,
        1.0000001192092896
      ],
      "translation": [
        -0.06081589311361313,
        0.4501892924308777,
        -0.011000038124620914
      ]
    },
    {
      "children": [
        44
      ],
      "name": "RightThumb2_035",
      "rotation": [
        0.10051477700471878,
        -0.4170134365558624,
        0.20376980304718018,
        0.880042314529419
      ],
      "scale": [
        0.9999999403953552,
        0.9999999403953552,
        0.9999999403953552
      ],
      "translation": [
        -4.6566128730773926e-08,
        0.060835834592580795,
        5.21540641784668e-08
      ]
    },
    {
      "name": "RightThumb3_036",
      "rotation": [
        0.02791544608771801,
        -0.017538243904709816,
        -0.015815122053027153,
        0.9993312954902649
      ],
      "scale": [
        0.9999999403953552,
        1.0,
        1.0
      ],
      "translation": [
        1.4901161193847656e-07,
        0.06004997342824936,
        2.9802322387695313e-08
      ]
    },
    {
      "children": [
        46
      ],
      "name": "Tail01_037",
      "rotation": [
        0.9986254572868347,
        0.0,
        0.0,
        -0.052413709461688995
      ],
      "scale": [
        1.0,
        1.0,
        1.0000299215316772
      ],
      "translation": [
        0.0,
        -0.11000025272369385,
        0.0
      ]
    },
    {
      "children": [
        47
      ],
      "name": "Tail02_038",
      "rotation": [
        0.16017800569534302,
        0.0,
        0.0,
        0.987088143825531
      ],
      "scale": [
        1.0,
        0.9999998211860657,
        0.9999999403953552
      ],
      "translation": [
        0.0,
        0.38209933042526245,
        3.725290298461914e-09
      ]
    },
    {
      "children": [
        48
      ],
      "name": "Tail03_039",
      "rotation": [
        0.22721540927886963,
        0.0,
        0.0,
        0.9738445281982422
      ],
      "scale": [
        1.0,
        1.0,
        0.9999999403953552
      ],
      "translation": [
        0.0,
        0.3624899387359619,
        -5.551115123125783e-17
      ]
    },
    {
      "name": "Tail04_040",
      "rotation": [
        0.213617742061615,
        0.0,
        0.0,
        0.9769173264503479
      ],
      "scale": [
        1.0,
        0.9999998807907104,
        0.9999999403953552
      ],
      "translation": [
        0.0,
        0.2842487692832947,
        0.0
      ]
    }
  ],
  "samplers": [
    {
      "magFilter": 9729,
      "minFilter": 9987,
      "wrapS": 10497,
      "wrapT": 10497
    }
  ],
  "scene": 0,
  "scenes": [
    {
      "name": "Sketchfab_Scene",
      "nodes": [
        0
      ]
    }
  ],
  "skins": [
    {
      "inverseBindMatrices": 4,
      "joints": [
        5,
        8,
        9,
        10,
        11,
        12,
        13,
        14,
        15,
        16,
        17,
        18,
        19,
        20,
        21,
        22,
        23,
        24,
        25,
        26,
        27,
        28,
        29,
        30,
        31,
        32,
        33,
        34,
        35,
        36,
        37,
        38,
        39,
        40,
        41,
        42,
        43,
        44,
        45,
        46,
        47,
        48
      ],
      "skeleton": 5
    }
  ],
  "textures": [
    {
      "sampler": 0,
      "source": 0
    }
  ]
}
