{
  "accessors": [
    {
      "bufferView": 3,
      "componentType": 5126,
      "count": 2185,
      "max": [
        0.816673755645752,
        1.1787165403366089,
        0.7224900126457214
      ],
      "min": [
        -0.816673755645752,
        -0.014310901053249836,
        -0.7406288385391235
      ],
      "type": "VEC3"
    },
    {
      "bufferView": 3,
      "byteOffset": 26220,
      "componentType": 5126,
      "count": 2185,
      "max": [
        0.9996663331985474,
        0.9995934367179871,
        0.9984745383262634
      ],
      "min": [
        -0.9996510744094849,
        -0.9997783303260803,
        -0.99830162525177
      ],
      "type": "VEC3"
    },
    {
      "bufferView": 2,
      "componentType": 5126,
      "count": 2185,
      "max": [
        0.9965472221374512,
        0.9938397407531738
      ],
      "min": [
        0.00606951117515564,
        0.0034966468811035156
      ],
      "type": "VEC2"
    },
    {
      "bufferView": 1,
      "componentType": 5125,
      "count": 8250,
      "type": "SCALAR"
    },
    {
      "bufferView": 5,
      "componentType": 5126,
      "count": 36,
      "max": [
        1.0,
        0.7399402260780334,
        0.7478454113006592,
        0.0,
        0.747844934463501,
        1.0,
        1.0000003576278687,
        0.0,
        0.7399402260780334,
        1.0000001192092896,
        1.0,
        0.0,
        0.6327937841415405,
        0.49097949266433716,
        0.8785036206245422,
        1.0
      ],
      "min": [
        -1.0,
        -0.7399402260780334,
        -0.7478454113006592,
        0.0,
        -0.747844934463501,
        -0.7993608713150024,
        -0.9686639308929443,
        0.0,
        -0.7399402260780334,
        -0.8864684104919434,
        -0.7993608117103577,
        0.0,
        -0.6327937841415405,
        -0.7595718502998352,
        -0.9300000071525574,
        1.0
      ],
      "type": "MAT4"
    },
    {
      "bufferView": 0,
      "componentType": 5123,
      "count": 2185,
      "type": "VEC4"
    },
    {
      "bufferView": 4,
      "componentType": 5126,
      "count": 2185,
      "max": [
        1.0,
        0.5,
        0.3027082085609436,
        0.0
      ],
      "min": [
        0.3681526780128479,
        0.0,
        0.0,
        0.0
      ],
      "type": "VEC4"
    }
  ],
  "asset": {
    "extras": {
      "author": "TacticalNerd1963 (https://sketchfab.com/TacticalNerd1963)",
      "license": "CC-BY-4.0 (http://creativecommons.org/licenses/by/4.0/)",
      "source": "https://sketchfab.com/3d-models/wildmutt-ben-10-vilgax-attacks-fan-model-1554c9e1fbe84dfa941ef6f7e697fe7e",
      "title": "Wildmutt (Ben 10: Vilgax Attacks fan model)"
    },
    "generator": "Sketchfab-16.16.0",
    "version": "2.0"
  },
  "bufferViews": [
    {
      "buffer": 0,
      "byteLength": 17480,
      "byteStride": 8,
      "name": "shortBufferViews",
      "target": 34962
    },
    {
      "buffer": 0,
      "byteLength": 33000,
      "byteOffset": 17480,
      "name": "floatBufferViews",
      "target": 34963
    },
    {
      "buffer": 0,
      "byteLength": 17480,
      "byteOffset": 50480,
      "byteStride": 8,
      "name": "floatBufferViews",
      "target": 34962
    },
    {
      "buffer": 0,
      "byteLength": 52440,
      "byteOffset": 67960,
      "byteStride": 12,
      "name": "floatBufferViews",
      "target": 34962
    },
    {
      "buffer": 0,
      "byteLength": 34960,
      "byteOffset": 120400,
      "byteStride": 16,
      "name": "floatBufferViews",
      "target": 34962
    },
    {
      "buffer": 0,
      "byteLength": 2304,
      "byteOffset": 155360,
      "name": "floatBufferViews"
    }
  ],
  "buffers": [
    {
      "byteLength": 157664,
      "uri": "scene.bin"
    }
  ],
  "extensionsRequired": [
    "KHR_materials_pbrSpecularGlossiness"
  ],
  "extensionsUsed": [
    "KHR_materials_pbrSpecularGlossiness"
  ],
  "images": [
    {
      "uri": "textures/mat_17.003_diffuse.png"
    }
  ],
  "materials": [
    {
      "doubleSided": true,
      "extensions": {
        "KHR_materials_pbrSpecularGlossiness": {
          "diffuseFactor": [
            1.0,
            1.0,
            1.0,
            1.0
          ],
          "diffuseTexture": {
            "index": 0
          },
          "glossinessFactor": 0.1788854381999832,
          "specularFactor": [
            0.0,
            0.0,
            0.0
          ]
        }
      },
      "name": "mat_17.003"
    }
  ],
  "meshes": [
    {
      "name": "0",
      "primitives": [
        {
          "attributes": {
            "JOINTS_0": 5,
            "NORMAL": 1,
            "POSITION": 0,
            "TEXCOORD_0": 2,
            "WEIGHTS_0": 6
          },
          "indices": 3,
          "material": 0,
          "mode": 4
        }
      ]
    }
  ],
  "nodes": [
    {
      "children": [
        1
      ],
      "matrix": [
        1.0,
        0.0,
        0.0,
        0.0,
        0.0,
        2.220446049250313e-16,
        -1.0,
        0.0,
        0.0,
        1.0,
        2.220446049250313e-16,
        0.0,
        0.0,
        0.0,
        0.0,
        1.0
      ],
      "name": "Sketchfab_model"
    },
    {
      "children": [
        2
      ],
      "matrix": [
        0.009999999776482582,
        0.0,
        0.0,
        0.0,
        0.0,
        0.0,
        0.009999999776482582,
        0.0,
        0.0,
        -0.009999999776482582,
        0.0,
        0.0,
        0.0,
        0.0,
        0.0,
        1.0
      ],
      "name": "VA_Wildmutt.fbx"
    },
    {
      "children": [
        3
      ],
      "name": "RootNode"
    },
    {
      "children": [
        4
      ],
      "matrix": [
        100.0,
        0.0,
        0.0,
        0.0,
        0.0,
        -1.629206793918314e-05,
        -99.99999999999868,
        0.0,
        0.0,
        99.99999999999868,
        -1.629206793918314e-05,
        0.0,
        0.0,
        0.0,
        0.0,
        1.0
      ],
      "name": "Armature"
    },
    {
      "children": [
        5,
        7,
        6
      ],
      "name": "Object_4"
    },
    {
      "children": [
        8
      ],
      "name": "_rootJoint"
    },
    {
      "matrix": [
        100.0,
        0.0,
        0.0,
        0.0,
        0.0,
        6.123233995736766e-15,
        -100.0,
        0.0,
        0.0,
        100.0,
        6.123233995736766e-15,
        0.0,
        0.0,
        -4.76837158203125e-07,
        -1.1920928955078125e-06,
        1.0
      ],
      "name": "Object_6"
    },
    {
      "mesh": 0,
      "name": "Object_7",
      "skin": 0
    },
    {
      "children": [
        9,
        37,
        40
      ],
      "name": "Hips_01",
      "rotation": [
        0.7071068286895752,
        0.0,
        0.0,
        0.7071067094802856
      ],
      "translation": [
        0.0,
        0.4899999797344208,
        0.6200000047683716
      ]
    },
    {
      "children": [
        10
      ],
      "name": "Spine_02",
      "rotation": [
        0.4994816780090332,
        0.0,
        0.0,
        0.8663244843482971
      ],
      "scale": [
        1.0,
        0.9999999403953552,
        0.9999999403953552
      ],
      "translation": [
        0.0,
        0.09999996423721313,
        0.0
      ]
    },
    {
      "children": [
        11,
        13,
        25
      ],
      "name": "Chest_03",
      "rotation": [
        0.13646934926509857,
        0.0,
        0.0,
        0.9906442761421204
      ],
      "scale": [
        1.0,
        1.0000001192092896,
        1.0
      ],
      "translation": [
        0.0,
        0.21954500675201416,
        4.470348358154297e-08
      ]
    },
    {
      "children": [
        12
      ],
      "name": "Neck_04",
      "rotation": [
        1.3212089200465016e-09,
        0.9921350479125977,
        0.1251721829175949,
        7.626308473618337e-08
      ],
      "scale": [
        1.0,
        0.9999998211860657,
        1.0
      ],
      "translation": [
        0.0,
        0.4026165008544922,
        2.9802322387695313e-08
      ]
    },
    {
      "name": "Head_05",
      "rotation": [
        -7.450580596923828e-09,
        4.371138828673793e-08,
        1.2138535881943391e-15,
        1.0
      ],
      "translation": [
        -5.767365810933358e-16,
        0.23000003397464752,
        -4.768372807717469e-09
      ]
    },
    {
      "children": [
        14
      ],
      "name": "LeftShoulder_06",
      "rotation": [
        0.6780869364738464,
        0.6940510272979736,
        -0.18517853319644928,
        0.15556412935256958
      ],
      "scale": [
        1.0,
        0.9999999403953552,
        0.9999999403953552
      ],
      "translation": [
        0.2200000137090683,
        0.2717227339744568,
        -0.012915590777993202
      ]
    },
    {
      "children": [
        15
      ],
      "name": "LeftUpperArm_07",
      "rotation": [
        -0.024231908842921257,
        -0.38935014605522156,
        0.035710409283638,
        0.9200782775878906
      ],
      "scale": [
        1.000000238418579,
        1.0000001192092896,
        1.0
      ],
      "translation": [
        8.754432201385498e-08,
        0.14866067469120026,
        3.5390257835388184e-08
      ]
    },
    {
      "children": [
        16
      ],
      "name": "LeftLowerArm_08",
      "rotation": [
        -0.010037572123110294,
        -0.39689141511917114,
        -0.012583629228174686,
        0.9177244305610657
      ],
      "scale": [
        1.0,
        0.9999999403953552,
        1.0
      ],
      "translation": [
        -2.0838342607021332e-08,
        0.25019994378089905,
        3.725290298461914e-09
      ]
    },
    {
      "children": [
        17,
        19,
        21,
        23
      ],
      "name": "LeftHand_09",
      "rotation": [
        -0.03155313432216644,
        -0.047592539340257645,
        -0.03896304592490196,
        0.9976077675819397
      ],
      "scale": [
        0.9999999403953552,
        1.0,
        1.0
      ],
      "translation": [
        -2.421438694000244e-08,
        0.5340413451194763,
        4.7497451305389404e-08
      ]
    },
    {
      "children": [
        18
      ],
      "name": "LeftIndex1_010",
      "rotation": [
        -0.13916924595832825,
        0.9314998984336853,
        0.02299748919904232,
        0.3352775275707245
      ],
      "scale": [
        0.9999998807907104,
        0.9999999403953552,
        0.9999998807907104
      ],
      "translation": [
        -0.06949950754642487,
        0.19253897666931152,
        -0.042408883571624756
      ]
    },
    {
      "name": "LeftIndex2_011",
      "rotation": [
        -4.464095582079608e-07,
        -5.8879722928395495e-06,
        -0.018101200461387634,
        0.999836266040802
      ],
      "scale": [
        0.9999999403953552,
        1.0,
        1.0
      ],
      "translation": [
        1.257285475730896e-08,
        0.08158443868160248,
        -3.6088749766349792e-09
      ]
    },
    {
      "children": [
        20
      ],
      "name": "LeftMiddle1_012",
      "rotation": [
        -0.08927580714225769,
        0.9375974535942078,
        0.040852367877960205,
        0.33357444405555725
      ],
      "scale": [
        1.0,
        0.9999999403953552,
        1.0
      ],
      "translation": [
        0.01414954662322998,
        0.19920384883880615,
        0.0010918546468019485
      ]
    },
    {
      "name": "LeftMiddle2_013",
      "rotation": [
        -7.172870368776785e-07,
        -4.286836883693468e-06,
        0.02514919452369213,
        0.9996837377548218
      ],
      "scale": [
        0.9999999403953552,
        0.9999999403953552,
        1.0000001192092896
      ],
      "translation": [
        1.5832483768463135e-08,
        0.08121578395366669,
        8.940696716308594e-08
      ]
    },
    {
      "children": [
        22
      ],
      "name": "LeftPinkie1_014",
      "rotation": [
        0.013327724300324917,
        0.9417431354522705,
        0.07692562788724899,
        0.32714635133743286
      ],
      "scale": [
        1.0,
        1.0,
        1.0000001192092896
      ],
      "translation": [
        0.08156126737594604,
        0.18484331667423248,
        0.060595616698265076
      ]
    },
    {
      "name": "LeftPinkie2_015",
      "rotation": [
        -5.525261030925321e-07,
        -2.012773848036886e-06,
        0.008254052139818668,
        0.999966025352478
      ],
      "scale": [
        1.0,
        1.0,
        1.0000001192092896
      ],
      "translation": [
        3.166496753692627e-08,
        0.08121596276760101,
        1.7229467630386353e-08
      ]
    },
    {
      "children": [
        24
      ],
      "name": "LeftThumb1_016",
      "rotation": [
        -0.4656708240509033,
        0.6356454491615295,
        -0.5425602793693542,
        -0.29109084606170654
      ],
      "scale": [
        0.9999999403953552,
        0.9999999403953552,
        0.9999998211860657
      ],
      "translation": [
        -0.12990397214889526,
        0.08902455121278763,
        -0.01985900104045868
      ]
    },
    {
      "name": "LeftThumb2_017",
      "rotation": [
        0.12215712666511536,
        -0.6532865762710571,
        0.10909974575042725,
        0.7391830086708069
      ],
      "scale": [
        1.0,
        1.0000001192092896,
        0.9999999403953552
      ],
      "translation": [
        3.3527612686157227e-08,
        0.06188306584954262,
        1.0756775736808777e-07
      ]
    },
    {
      "children": [
        26
      ],
      "name": "RightShoulder_018",
      "rotation": [
        -0.6780868768692017,
        0.6940510869026184,
        -0.18517857789993286,
        -0.155564084649086
      ],
      "scale": [
        1.0,
        0.9999999403953552,
        1.0
      ],
      "translation": [
        -0.2200000137090683,
        0.2717227339744568,
        -0.012915590777993202
      ]
    },
    {
      "children": [
        27
      ],
      "name": "RightUpperArm_019",
      "rotation": [
        -0.024231908842921257,
        0.38935014605522156,
        -0.0357104167342186,
        0.9200783967971802
      ],
      "scale": [
        0.9999999403953552,
        1.0,
        0.9999998211860657
      ],
      "translation": [
        -4.0978193283081055e-08,
        0.14866067469120026,
        -1.7695128917694092e-08
      ]
    },
    {
      "children": [
        28
      ],
      "name": "RightLowerArm_020",
      "rotation": [
        -0.01003760565072298,
        0.3968915343284607,
        0.012583641335368156,
        0.9177243709564209
      ],
      "scale": [
        1.0000001192092896,
        1.0000001192092896,
        1.0
      ],
      "translation": [
        1.5366822481155396e-08,
        0.2502000033855438,
        0.0
      ]
    },
    {
      "children": [
        29,
        31,
        33,
        35
      ],
      "name": "RightHand_021",
      "rotation": [
        -0.03155313432216644,
        0.04759254679083824,
        0.03896304592490196,
        0.9976077675819397
      ],
      "scale": [
        0.9999999403953552,
        0.9999999403953552,
        1.0
      ],
      "translation": [
        -3.5390257835388184e-08,
        0.5340412855148315,
        -1.210719347000122e-08
      ]
    },
    {
      "children": [
        30
      ],
      "name": "RightIndex1_022",
      "rotation": [
        0.13916924595832825,
        0.9314998984336853,
        0.022997507825493813,
        -0.3352775275707245
      ],
      "scale": [
        1.0,
        1.0000001192092896,
        0.9999998211860657
      ],
      "translation": [
        0.06949956715106964,
        0.1925390511751175,
        -0.04240897297859192
      ]
    },
    {
      "name": "RightIndex2_023",
      "rotation": [
        -4.468754752906534e-07,
        5.888673513254616e-06,
        0.018101194873452187,
        0.999836266040802
      ],
      "scale": [
        0.9999998807907104,
        1.0,
        0.9999999403953552
      ],
      "translation": [
        6.51925802230835e-09,
        0.08158451318740845,
        -9.452924132347107e-08
      ]
    },
    {
      "children": [
        32
      ],
      "name": "RightMiddle1_024",
      "rotation": [
        0.0892757996916771,
        0.9375974535942078,
        0.040852341800928116,
        -0.33357444405555725
      ],
      "scale": [
        1.0000001192092896,
        0.9999998211860657,
        1.0
      ],
      "translation": [
        -0.014149479568004608,
        0.19920392334461212,
        0.0010917801409959793
      ]
    },
    {
      "name": "RightMiddle2_00",
      "rotation": [
        -7.178111331995751e-07,
        4.286487182980636e-06,
        -0.02514919824898243,
        0.9996837377548218
      ],
      "scale": [
        0.9999999403953552,
        0.9999998807907104,
        1.0
      ],
      "translation": [
        -2.7008354663848877e-08,
        0.0812157616019249,
        -2.4097971618175507e-08
      ]
    },
    {
      "children": [
        34
      ],
      "name": "RightPinkie1_025",
      "rotation": [
        -0.01332775317132473,
        0.9417431354522705,
        0.07692558318376541,
        -0.32714635133743286
      ],
      "scale": [
        0.9999999403953552,
        1.000000238418579,
        1.000000238418579
      ],
      "translation": [
        -0.08156125992536545,
        0.184843510389328,
        0.06059549003839493
      ]
    },
    {
      "name": "RightPinkie2_026",
      "rotation": [
        -5.52991707536421e-07,
        2.0132972622377565e-06,
        -0.008254055865108967,
        0.999966025352478
      ],
      "scale": [
        0.9999999403953552,
        0.9999999403953552,
        1.0
      ],
      "translation": [
        1.1175870895385742e-08,
        0.08121566474437714,
        1.1897645890712738e-07
      ]
    },
    {
      "children": [
        36
      ],
      "name": "RightThumb1_027",
      "rotation": [
        0.46567097306251526,
        0.6356452107429504,
        -0.542560338973999,
        0.2910909354686737
      ],
      "scale": [
        0.9999999403953552,
        0.9999998807907104,
        0.9999999403953552
      ],
      "translation": [
        0.12990403175354004,
        0.089024618268013,
        -0.019859109073877335
      ]
    },
    {
      "name": "RightThumb2_028",
      "rotation": [
        0.12215713411569595,
        0.6532865762710571,
        -0.10909976065158844,
        0.7391830086708069
      ],
      "scale": [
        1.0,
        1.0,
        0.9999999403953552
      ],
      "translation": [
        7.078051567077637e-08,
        0.061883073300123215,
        -1.816079020500183e-08
      ]
    },
    {
      "children": [
        38
      ],
      "name": "LeftUpperLeg_029",
      "rotation": [
        0.8184628486633301,
        0.4057256281375885,
        0.40572524070739746,
        0.029871758073568344
      ],
      "scale": [
        1.0000003576278687,
        1.0000004768371582,
        1.0000001192092896
      ],
      "translation": [
        0.1599999964237213,
        -0.009999990463256836,
        0.0
      ]
    },
    {
      "children": [
        39
      ],
      "name": "LeftLowerLeg_030",
      "rotation": [
        0.4934765696525574,
        -0.19769789278507233,
        0.6557965278625488,
        0.5360293984413147
      ],
      "scale": [
        1.0,
        0.9999999403953552,
        0.9999998807907104
      ],
      "translation": [
        5.960464477539063e-08,
        0.34380221366882324,
        7.450580596923828e-09
      ]
    },
    {
      "name": "LeftFoot_031",
      "rotation": [
        0.592171847820282,
        -0.20719879865646362,
        0.6044005751609802,
        -0.49102044105529785
      ],
      "scale": [
        1.0000001192092896,
        1.0000001192092896,
        1.0000001192092896
      ],
      "translation": [
        -3.073364496231079e-08,
        0.3350372612476349,
        -5.681067705154419e-08
      ]
    },
    {
      "children": [
        41
      ],
      "name": "RightUpperLeg_032",
      "rotation": [
        0.8184628486633301,
        -0.4057256281375885,
        -0.40572524070739746,
        0.029871758073568344
      ],
      "scale": [
        1.0000003576278687,
        1.0000004768371582,
        1.0000001192092896
      ],
      "translation": [
        -0.1599999964237213,
        -0.009999990463256836,
        0.0
      ]
    },
    {
      "children": [
        42
      ],
      "name": "RightLowerLeg_033",
      "rotation": [
        0.4934765696525574,
        0.19769789278507233,
        -0.6557965278625488,
        0.5360293984413147
      ],
      "scale": [
        1.0,
        0.9999999403953552,
        0.9999998807907104
      ],
      "translation": [
        -5.960464477539063e-08,
        0.34380221366882324,
        7.450580596923828e-09
      ]
    },
    {
      "name": "RightFoot_034",
      "rotation": [
        -0.592171847820282,
        -0.20719879865646362,
        0.6044005751609802,
        0.49102044105529785
      ],
      "scale": [
        1.0000001192092896,
        1.0000001192092896,
        1.0000001192092896
      ],
      "translation": [
        3.073364496231079e-08,
        0.3350372612476349,
        -5.681067705154419e-08
      ]
    }
  ],
  "samplers": [
    {
      "magFilter": 9729,
      "minFilter": 9987,
      "wrapS": 10497,
      "wrapT": 10497
    }
  ],
  "scene": 0,
  "scenes": [
    {
      "name": "Sketchfab_Scene",
      "nodes": [
        0
      ]
    }
  ],
  "skins": [
    {
      "inverseBindMatrices": 4,
      "joints": [
        5,
        8,
        9,
        10,
        11,
        12,
        13,
        14,
        15,
        16,
        17,
        18,
        19,
        20,
        21,
        22,
        23,
        24,
        25,
        26,
        27,
        28,
        29,
        30,
        31,
        32,
        33,
        34,
        35,
        36,
        37,
        38,
        39,
        40,
        41,
        42
      ],
      "skeleton": 5
    }
  ],
  "textures": [
    {
      "sampler": 0,
      "source": 0
    }
  ]
}
